PathFileType	4	(X/Y/Z)	C:\Users\chris\Documents\GitHub\baseballds\vids\pitch5_Sports2D\pitch5_Sports2D_m_person04.trc
DataRate	CameraRate	NumFrames	NumMarkers	Units	OrigDataRate	OrigDataStartFrame	OrigNumFrames
30	30	10	22	m	30	111	149
Frame#	Time	Hip			RHip			RKnee			RAnkle			RBigToe			RSmallToe			RHeel			LHip			LKnee			LAnkle			LBigToe			LSmallToe			LHeel			Neck			Head			Nose			RShoulder			RElbow			RWrist			LShoulder			LElbow			LWrist		
		X1	Y1	Z1	X2	Y2	Z2	X3	Y3	Z3	X4	Y4	Z4	X5	Y5	Z5	X6	Y6	Z6	X7	Y7	Z7	X8	Y8	Z8	X9	Y9	Z9	X10	Y10	Z10	X11	Y11	Z11	X12	Y12	Z12	X13	Y13	Z13	X14	Y14	Z14	X15	Y15	Z15	X16	Y16	Z16	X17	Y17	Z17	X18	Y18	Z18	X19	Y19	Z19	X20	Y20	Z20	X21	Y21	Z21	X22	Y22	Z22
111	3.6999999999999997	1.9139327271940707	1.111294026147305	0.0	1.8652506760714131	1.1059494615594516	0.0	1.8391290147725312	0.9791079584934853	0.0	1.8115680360509234	0.8538635144047224	0.0	1.819258888758001	0.8128284957629318	0.0	1.7841404283814808	0.8123422265791439	0.0	1.813740406755595	0.8342749126529986	0.0	1.947779530058371	1.1115570132257078	0.0	1.9783568524976483	0.9921923891968731	0.0	1.995683108586855	0.8694472136935644	0.0	2.016797934164042	0.8509980671434437	0.0	2.0359860388800466	0.8589752048202925	0.0	2.0091210364925374	0.8640349419157096	0.0	1.889893657019346	1.2976632130072734	0.0	1.875181478369891	1.417619791841167	0.0	1.8631810726598708	1.3478622278813612	0.0	1.8262287836831206	1.2734646358799915	0.0	1.8086372858601578	1.193409185836766	0.0	1.8314897279177722	1.1131601538154496	0.0	1.966358180939739	1.2836241923836884	0.0	2.022278040385799	1.224775093925329	0.0	2.0380361989102	1.1173277339020689	0.0
112	3.7333333333333334	1.817306279288834	1.0885653644487976	0.0	1.7648026648221433	1.082788133726551	0.0	1.7359316653451164	0.9439409906737988	0.0	1.7054619696029387	0.8070932567884673	0.0	1.71435837457728	0.7617731566080229	0.0	1.6759904428459331	0.7612135680832004	0.0	1.706920107786553	0.7852266122282218	0.0	1.8542584413132075	1.0887327137262282	0.0	1.886840909784115	0.9585719005401525	0.0	1.9063774012247718	0.8232932756392256	0.0	1.9266515879740445	0.801178342055264	0.0	1.9490210750499224	0.8101712782315442	0.0	1.9196930098009344	0.8159515235006778	0.0	1.7914622635393798	1.295811707161715	0.0	1.7767287713797515	1.4267000501971923	0.0	1.766559944423101	1.3510512919886062	0.0	1.7217666286355593	1.2685367288179419	0.0	1.7032985379775658	1.1787286212517036	0.0	1.7288411464660125	1.0906848472838533	0.0	1.873912834128361	1.2788010182299903	0.0	1.9326767587209837	1.2125511084231948	0.0	1.9502403771634242	1.0963176708100113	0.0
113	3.7666666666666666	1.7427209188447481	1.0648098461900657	0.0	1.691256762416897	1.0583099405028207	0.0	1.6614662257895967	0.9142608111283036	0.0	1.62961314379104	0.7731770544248903	0.0	1.6401708753878126	0.7240913106352794	0.0	1.6012281713591923	0.7242527949137741	0.0	1.62807683608155	0.7502557843038064	0.0	1.781372891847675	1.0633890003223874	0.0	1.8092360550679558	0.9284191668524899	0.0	1.8289432915683828	0.7827230174160418	0.0	1.8474966492389282	0.7544620644937726	0.0	1.87095263006054	0.7640832498551027	0.0	1.8358326536649954	0.7696309457649855	0.0	1.7196735718092746	1.2976333340311774	0.0	1.7112315688743849	1.4306521666123835	0.0	1.7118284161322215	1.3550580878866645	0.0	1.647094419631649	1.2654644447351615	0.0	1.6300015777025756	1.162715670352388	0.0	1.6565966232356937	1.068689605959457	0.0	1.7991010181910019	1.2720064729708986	0.0	1.8490388196644432	1.1926575347219956	0.0	1.8688726801515085	1.0763046473002926	0.0
114	3.8	1.705632376244708	1.0457696123568236	0.0	1.6592562681193825	1.0382685900145967	0.0	1.6305123224561693	0.8964093447678917	0.0	1.5978174928825564	0.7593493779458236	0.0	1.6106049395155169	0.7062439178051826	0.0	1.5735812005621979	0.7078970824748221	0.0	1.591984485861923	0.7368750331070673	0.0	1.7442145637680462	1.0417128059839962	0.0	1.7623061133729778	0.9073163956907677	0.0	1.7792629402383555	0.7551415989951875	0.0	1.8041779128842974	0.7210165161566825	0.0	1.8233322179762024	0.7304545079289212	0.0	1.7753291845712211	0.7337455104934318	0.0	1.6885807683628578	1.3030437852063104	0.0	1.6907738716148606	1.429803034581838	0.0	1.7072807150621316	1.3591875008560221	0.0	1.6167717915599347	1.2649571468369265	0.0	1.6028477747436953	1.1496384780070266	0.0	1.6296959058191693	1.0520201154855515	0.0	1.7572878051452012	1.265215875505291	0.0	1.7898308207792608	1.1702327289339272	0.0	1.812055551422873	1.0606294632650135	0.0
115	3.8333333333333335	1.7009892518701655	1.0388003745768657	0.0	1.659018846219412	1.0308565778399996	0.0	1.631970257964666	0.8912904548210894	0.0	1.5966401293883112	0.7611997210461505	0.0	1.6114507038436627	0.7035361345570141	0.0	1.5771950090654263	0.7067879153953951	0.0	1.5878732284179293	0.7405144868619836	0.0	1.7386691678287345	1.0329700479159125	0.0	1.7485078558974012	0.8972641718337532	0.0	1.7609679049909526	0.7431456142717158	0.0	1.8025233483563887	0.7069370494162707	0.0	1.8131155600009732	0.7156589222697316	0.0	1.7485992948421027	0.7156455196675379	0.0	1.6882904801927445	1.3088653365058365	0.0	1.6983331219116389	1.4285803952042901	0.0	1.7260155013829817	1.3623290767376017	0.0	1.6185726982898236	1.2660453918807482	0.0	1.6074440768413976	1.143774850939554	0.0	1.6354874752387674	1.0441981458781076	0.0	1.747319401633493	1.262026310532772	0.0	1.7658740337661551	1.1563014115781969	0.0	1.7881853171285549	1.0523282461877714	0.0
116	3.8666666666666667	1.7092705811312456	1.043695273629281	0.0	1.6685431200524572	1.0370507937263804	0.0	1.6432232150600747	0.8933613124205947	0.0	1.6025827908808026	0.768274303662543	0.0	1.6178374453630986	0.7063211513689036	0.0	1.5864582746676548	0.7109873248347207	0.0	1.5936288007723753	0.7504015328106313	0.0	1.7464734711382903	1.0386170610240457	0.0	1.7527422644044621	0.89481704706219	0.0	1.7607677768652046	0.7416433376406395	0.0	1.817056872640743	0.7062429398592601	0.0	1.8208528406386204	0.7144443893261354	0.0	1.7452625577737775	0.712663194296294	0.0	1.6979434647730092	1.312995779618108	0.0	1.70997350599049	1.4297816196286213	0.0	1.7406511905985065	1.3643903420567807	0.0	1.6292836025963182	1.2673404101356072	0.0	1.6192862544001128	1.1441407847613128	0.0	1.6493328696707992	1.0435850899921477	0.0	1.7531644457980127	1.2633470446525774	0.0	1.7668970041808716	1.1546878711338482	0.0	1.7847040785404529	1.054029021496421	0.0
117	3.9	1.7164918762285504	1.0514539532178042	0.0	1.6755783341598505	1.047231135047087	0.0	1.6525111549948504	0.8967550244080507	0.0	1.6053722012367315	0.7745469408961814	0.0	1.618695363278793	0.7087363815961727	0.0	1.5899155842643267	0.7148707822559689	0.0	1.5980979098313184	0.7595001772883443	0.0	1.7541050699531868	1.0492288640964431	0.0	1.7592730936314886	0.8957981827542694	0.0	1.763528165987809	0.7434980542298658	0.0	1.8234711895215872	0.7084695017053486	0.0	1.8257342232207747	0.716687703322396	0.0	1.7477732292002914	0.7158049335878696	0.0	1.705968241225114	1.315625696806999	0.0	1.7172983244554916	1.4325327513329786	0.0	1.746947508617332	1.3660372400575158	0.0	1.637444642449089	1.2684331996988223	0.0	1.627148614184284	1.146961577009609	0.0	1.6589656943226727	1.045816084059537	0.0	1.760728578704633	1.2667614485940215	0.0	1.7754075686418331	1.1604975431455362	0.0	1.7879796231636496	1.070251739597696	0.0
118	3.933333333333333	1.7209622143923526	1.0549246872555504	0.0	1.6804008430674011	1.0520412448748337	0.0	1.6596199999632872	0.8991146520569099	0.0	1.606866945589076	0.7797325072685294	0.0	1.6162680125106987	0.7099132274480873	0.0	1.5889415599663828	0.7175793709730593	0.0	1.6008680927609038	0.7664844918191268	0.0	1.7594200521826326	1.0554195478185182	0.0	1.7628103894147509	0.8978284702188618	0.0	1.7637688563408376	0.745311779520347	0.0	1.820928523150459	0.7090488148402165	0.0	1.8248577902001681	0.7175957141607824	0.0	1.748425397686373	0.7192237488626113	0.0	1.7110254239776737	1.3168796341432507	0.0	1.7219763232878422	1.4352779292883058	0.0	1.7509179393067693	1.3676845221105822	0.0	1.643062975130813	1.2694508969325689	0.0	1.6318975229709654	1.1498689083294873	0.0	1.665411130603213	1.0478283216356357	0.0	1.765835638696834	1.269421810799153	0.0	1.7824792188689322	1.167607637781107	0.0	1.7970027261945127	1.1008965438443867	0.0
119	3.966666666666667	1.725768894535349	1.0552602838375371	0.0	1.6860725927515021	1.0523827849833662	0.0	1.6667526911376032	0.9003491883382734	0.0	1.609814400051382	0.7847987768956644	0.0	1.614553503956196	0.7111371054859714	0.0	1.5875303395794218	0.7200655990339576	0.0	1.6033222483154317	0.7726081872161312	0.0	1.764674325144031	1.0570758652546932	0.0	1.7645051926343946	0.8993529182990921	0.0	1.7627233571670515	0.7466842230044028	0.0	1.8177572328482356	0.7088446215501139	0.0	1.8232806624913573	0.7175926951045711	0.0	1.7477012154995077	0.7214869997357711	0.0	1.7147046724901638	1.3171147952579285	0.0	1.7259853631279782	1.4371464204503317	0.0	1.7556096660603857	1.3690869296785688	0.0	1.6479266791819334	1.270421331763331	0.0	1.6363981988381977	1.1521928487726327	0.0	1.6718032177384217	1.049492043085166	0.0	1.769671305015911	1.2703084711123638	0.0	1.786364523598601	1.1719616033100717	0.0	1.809403282818397	1.1316110129689094	0.0
120	4.0	1.7317014352492817	1.0558351582644008	0.0	1.692530104411629	1.0536841469808662	0.0	1.6749198398448075	0.9009763065557546	0.0	1.6139643209747985	0.7897145223194321	0.0	1.6150722441789593	0.7131591275616306	0.0	1.5880987828011812	0.7227506888308523	0.0	1.6065602682034916	0.7789666907827175	0.0	1.77033635259622	1.0585015302032026	0.0	1.7657734455454681	0.90017979293912	0.0	1.7620109383081868	0.7475969417357371	0.0	1.8165273669944941	0.7092612427610092	0.0	1.8221914548100777	0.7180260991948739	0.0	1.7469743553502812	0.7223462828266195	0.0	1.7181484418872188	1.3178593213383583	0.0	1.7303310307756739	1.4380189166035968	0.0	1.760298422729023	1.3696840195025124	0.0	1.6522481957338997	1.2715002892294465	0.0	1.6414168399342928	1.1540090881191558	0.0	1.6786607412010297	1.051876235589881	0.0	1.7734566680394102	1.270775032174555	0.0	1.788797843172345	1.173161659797471	0.0	1.8173150054110085	1.146264587628407	0.0
